PathFileType	4	(X/Y/Z)	/Users/itak/Documents/Research/Walk-IL/dataset/trc/00435_00167.trc
DataRate	CameraRate	NumFrames	NumMarkers	Units	OrigDataRate	OrigDataStartFrame	OrigNumFrames
100.000000	100.000000	4	53	mm	100.000000	127	510
Frame#	Time	RPSI			LPSI			L3			STRN			T10			C7			CLAV			RBAK			LBAK			LSHO			LUPA			LAEL			LAOL			LWTS			LWPS			LFRA			LIFD			LHPS			LHTS			RSHO			RUPA			RAEL			RAOL			RWTS			RWPS			RFRA			RIFD			RHTS			RHPS			RBHD			LFHD			RFHD			LBHD			LHIP			RHIP			RASI			LASI			LKNE			LTHI			LANK			LTIP			LTOE			LMT1			LMT5			LHEE			RKNE			RTHI			RANK			RTIP			RTOE			RMT1			RMT5			RHEE			
		X1	Y1	Z1	X2	Y2	Z2	X3	Y3	Z3	X4	Y4	Z4	X5	Y5	Z5	X6	Y6	Z6	X7	Y7	Z7	X8	Y8	Z8	X9	Y9	Z9	X10	Y10	Z10	X11	Y11	Z11	X12	Y12	Z12	X13	Y13	Z13	X14	Y14	Z14	X15	Y15	Z15	X16	Y16	Z16	X17	Y17	Z17	X18	Y18	Z18	X19	Y19	Z19	X20	Y20	Z20	X21	Y21	Z21	X22	Y22	Z22	X23	Y23	Z23	X24	Y24	Z24	X25	Y25	Z25	X26	Y26	Z26	X27	Y27	Z27	X28	Y28	Z28	X29	Y29	Z29	X30	Y30	Z30	X31	Y31	Z31	X32	Y32	Z32	X33	Y33	Z33	X34	Y34	Z34	X35	Y35	Z35	X36	Y36	Z36	X37	Y37	Z37	X38	Y38	Z38	X39	Y39	Z39	X40	Y40	Z40	X41	Y41	Z41	X42	Y42	Z42	X43	Y43	Z43	X44	Y44	Z44	X45	Y45	Z45	X46	Y46	Z46	X47	Y47	Z47	X48	Y48	Z48	X49	Y49	Z49	X50	Y50	Z50	X51	Y51	Z51	X52	Y52	Z52	X53	Y53	Z53	

128	1.27	-1106.364990234375	973.6488647460938	-473.1131591796875	-1029.282836914062	969.2288208007812	-592.4781494140625	-1058.485229492188	1063.844482421875	-515.5496826171875	-807.6119384765625	1239.829345703125	-404.2159423828125	-1067.432250976562	1187.775634765625	-531.61572265625	-999.3311157226562	1451.580810546875	-491.6521606445312	-831.5664672851562	1355.261352539062	-424.1444702148438	-1104.265625	1338.221313476562	-431.9415283203125	-985.0699462890625	1404.4873046875	-595.9931030273438	-854.2559814453125	1415.09716796875	-619.9650268554688	-820.587890625	1292.815063476562	-710.1063842773438	-790.748779296875	1072.867919921875	-717.8892211914062	-893.7218627929688	1063.091430664062	-706.9368896484375	-756.5525512695312	872.1119995117188	-629.3860473632812	-765.2252807617188	854.0940551757812	-701.2347412109375	-771.6698608398438	984.7719116210938	-711.5671997070312	-761.4124145507812	702.485107421875	-625.1318969726562	-764.7447509765625	773.3864135742188	-693.8973999023438	-743.5870361328125	781.2513427734375	-626.195556640625	-1003.67333984375	1417.451293945312	-314.7179870605469	-1051.656616210938	1358.196533203125	-251.6355133056641	-1073.80419921875	1073.340209960938	-188.6277618408203	-1111.908813476562	1054.795532226562	-241.8468627929688	-957.6194458007812	875.9806518554688	-193.8894805908203	-1037.641723632812	857.9330444335938	-161.5243682861328	-1071.747436523438	1014.945739746094	-176.9876708984375	-951.8519897460938	717.1044311523438	-180.1411285400391	-943.0391845703125	777.5202026367188	-172.9967956542969	-1016.416137695312	771.7373657226562	-155.1481475830078	-966.7974243164062	1642.12548828125	-386.4374084472656	-773.8506469726562	1660.498779296875	-459.896240234375	-836.2205810546875	1662.642822265625	-344.8631286621094	-895.4171142578125	1643.389282226562	-550.3494262695312	-861.6121215820312	848.27001953125	-621.259765625	-1089.482666015625	863.5828247070312	-292.5497436523438	-964.72314453125	897.7010498046875	-292.107421875	-816.6842041015625	881.820556640625	-502.616943359375	-921.5819091796875	428.5549011230469	-574.1095581054688	-873.1978149414062	576.0396728515625	-585.1917724609375	-1024.102905273438	32.26791763305664	-595.6224975585938	-939.72265625	276.737548828125	-577.3827514648438	-892.0089721679688	44.40240097045898	-401.5280151367188	-966.8142700195312	50.69445037841797	-425.9520874023438	-898.2852783203125	46.06598281860352	-515.7847290039062	-1097.613403320312	35.5283088684082	-590.3547973632812	-1058.947875976562	463.87451171875	-298.0339965820312	-1058.47705078125	726.0023193359375	-260.6282653808594	-1150.486572265625	46.1414680480957	-340.9276123046875	-1090.46533203125	322.3190307617188	-295.9783020019531	-943.8787231445312	48.48394775390625	-273.5055541992188	-979.2367553710938	55.12593841552734	-336.3681335449219	-1048.89013671875	46.78511810302734	-253.4874420166016	-1185.562622070312	42.10595321655273	-414.2850036621094	
129	1.28	-1105.228881835938	972.824951171875	-472.7704772949219	-1028.086059570312	968.66259765625	-592.2234497070312	-1057.327026367188	1063.448364257812	-515.3538208007812	-806.519775390625	1239.721801757812	-403.8212280273438	-1066.2451171875	1187.4248046875	-531.3914184570312	-998.3355712890625	1451.294311523438	-491.28271484375	-830.5734252929688	1355.1298828125	-423.7166137695312	-1103.2724609375	1337.818481445312	-431.7676696777344	-983.9495239257812	1404.221069335938	-595.586181640625	-853.1575927734375	1414.929443359375	-619.57861328125	-819.4954833984375	1292.664428710938	-709.7909545898438	-789.918701171875	1072.604370117188	-717.4307250976562	-892.8168334960938	1063.014526367188	-706.54638671875	-755.9729614257812	871.916748046875	-628.6642456054688	-764.568359375	853.8353881835938	-700.5283813476562	-770.9138793945312	984.4774169921875	-711.006103515625	-761.0487060546875	702.322021484375	-624.1868286132812	-764.2225341796875	773.1134643554688	-693.0381469726562	-743.150634765625	781.0054931640625	-625.3534545898438	-1002.918151855469	1417.047241210938	-314.3502197265625	-1051.012084960938	1357.764770507812	-251.5112152099609	-1073.725708007812	1073.035522460938	-188.4508972167969	-1111.545654296875	1054.454467773438	-241.83154296875	-957.64892578125	875.589599609375	-192.7667083740234	-1037.873291015625	857.6294555664062	-160.9129333496094	-1071.784301757812	1014.653381347656	-176.7517395019531	-952.0384521484375	716.7525024414062	-178.7687225341797	-943.2466430664062	777.1671752929688	-171.6734619140625	-1016.7294921875	771.4344482421875	-154.2994689941406	-965.892578125	1641.798950195312	-385.9817504882812	-773.0098876953125	1660.46630859375	-459.3876647949219	-835.3829345703125	1662.502075195312	-344.3812561035156	-894.5281982421875	1643.150146484375	-549.9039916992188	-860.211181640625	847.9810791015625	-620.8386840820312	-1087.697265625	863.0538940429688	-291.6639709472656	-963.2487182617188	897.8002319335938	-292.0424194335938	-815.2130126953125	881.6566162109375	-502.4150695800781	-920.6901245117188	428.2737426757812	-573.8279418945312	-871.9891967773438	575.7844848632812	-584.778564453125	-1024.148559570312	32.18553924560547	-595.7474975585938	-939.2813110351562	276.3939208984375	-577.1206665039062	-892.3370361328125	44.47863388061523	-401.3111267089844	-967.0285034179688	50.73415374755859	-425.9716796875	-898.6002197265625	46.30358505249023	-515.6578369140625	-1097.656494140625	35.39682006835938	-590.5087890625	-1052.278442382812	463.896728515625	-294.5305480957031	-1054.646606445312	725.8046264648438	-259.2640991210938	-1149.917236328125	47.56916046142578	-341.1328735351562	-1086.028076171875	322.693603515625	-293.6929016113281	-943.6593017578125	48.35105133056641	-273.0743103027344	-978.7725830078125	55.14849853515625	-335.934326171875	-1048.694458007812	46.76024627685547	-253.5005493164062	-1184.667724609375	44.61427688598633	-414.7593688964844	
130	1.29	-1104.093017578125	971.9576416015625	-472.4179382324219	-1026.886840820312	968.0783081054688	-591.964111328125	-1056.154174804688	1063.052490234375	-515.1865844726562	-805.4027709960938	1239.5849609375	-403.3154296875	-1064.996826171875	1187.084106445312	-531.1517944335938	-997.2498779296875	1451.007446289062	-490.8671875	-829.5330200195312	1354.971313476562	-423.1901245117188	-1102.224365234375	1337.427490234375	-431.5851440429688	-982.7049560546875	1403.950317382812	-595.132080078125	-851.91796875	1414.725952148438	-619.0899658203125	-818.2691040039062	1292.489013671875	-709.3899536132812	-788.9921875	1072.330322265625	-716.94921875	-891.8211669921875	1062.905517578125	-706.1375732421875	-755.3557739257812	871.6776733398438	-627.9292602539062	-763.8435668945312	853.5597534179688	-699.8115844726562	-770.0609741210938	984.15625	-710.419677734375	-760.6689453125	702.1241455078125	-623.2320556640625	-763.6749877929688	772.8247680664062	-692.1749877929688	-742.68310546875	780.7326049804688	-624.4962768554688	-1002.121643066406	1416.638916015625	-313.9403991699219	-1050.371215820312	1357.32421875	-251.3422546386719	-1073.64453125	1072.708618164062	-188.2820129394531	-1111.161743164062	1054.099853515625	-241.8415679931641	-957.7113647460938	875.1603393554688	-191.6247406005859	-1038.159790039062	857.296630859375	-160.3197937011719	-1071.825317382812	1014.340698242188	-176.5181732177734	-952.2992553710938	716.3571166992188	-177.3742980957031	-943.5130004882812	776.7693481445312	-170.3199157714844	-1017.129699707031	771.1159057617188	-153.4474487304688	-964.920654296875	1641.475830078125	-385.4870300292969	-772.0588989257812	1660.42529296875	-458.8216552734375	-834.4816284179688	1662.373168945312	-343.8422241210938	-893.5554809570312	1642.891845703125	-549.3983154296875	-858.794189453125	847.692626953125	-620.4124145507812	-1085.83984375	862.521484375	-290.7461242675781	-961.8150634765625	897.9214477539062	-292.0126037597656	-813.72265625	881.500244140625	-502.2175903320312	-919.8154296875	427.9940795898438	-573.5479125976562	-870.8008422851562	575.5234985351562	-584.3578491210938	-1024.189819335938	32.11051940917969	-595.8591918945312	-938.8457641601562	276.05078125	-576.8740234375	-892.6453247070312	44.56302642822266	-401.1208190917969	-967.2101440429688	50.79130172729492	-425.9802856445312	-898.8919677734375	46.51792907714844	-515.5494384765625	-1097.689819335938	35.2691535949707	-590.6615600585938	-1045.131469726562	464.1199340820312	-290.66552734375	-1050.587280273438	725.7020874023438	-257.7755432128906	-1149.182861328125	49.41053771972656	-341.4120788574219	-1081.261840820312	323.3333435058594	-291.1788635253906	-943.4155883789062	48.20840835571289	-272.5845336914062	-978.1849365234375	55.17183685302734	-335.4457702636719	-1048.436889648438	46.77898788452148	-253.5646057128906	-1183.5419921875	47.76594161987305	-415.302001953125	
131	1.3	-1102.948974609375	971.05029296875	-472.0571594238281	-1025.681274414062	967.4818115234375	-591.6890258789062	-1054.97412109375	1062.664306640625	-515.0559692382812	-804.2610473632812	1239.415405273438	-402.6913146972656	-1063.677001953125	1186.7587890625	-530.897216796875	-996.0682373046875	1450.722534179688	-490.3917846679688	-828.444091796875	1354.785522460938	-422.5540466308594	-1101.118286132812	1337.053344726562	-431.3846130371094	-981.3299560546875	1403.681396484375	-594.6240844726562	-850.5232543945312	1414.491455078125	-618.4889526367188	-816.8976440429688	1292.289794921875	-708.8858032226562	-787.9513549804688	1072.0400390625	-716.4328002929688	-890.7243041992188	1062.75927734375	-705.7005615234375	-754.7015991210938	871.3897705078125	-627.17822265625	-763.0511474609375	853.2614135742188	-699.0807495117188	-769.1051635742188	983.8140258789062	-709.8006591796875	-760.2791137695312	701.8773193359375	-622.2875366210938	-763.1012573242188	772.5126953125	-691.3218994140625	-742.1780395507812	780.427978515625	-623.6318359375	-1001.281677246094	1416.2333984375	-313.4811401367188	-1049.727294921875	1356.878295898438	-251.1152496337891	-1073.554321289062	1072.362182617188	-188.1145477294922	-1110.7490234375	1053.734985351562	-241.8774566650391	-957.8005981445312	874.6941528320312	-190.4715576171875	-1038.494750976562	856.937255859375	-159.7515563964844	-1071.867065429688	1014.009704589844	-176.2852325439453	-952.6305541992188	715.9219970703125	-175.9730377197266	-943.8361206054688	776.3294067382812	-168.9469757080078	-1017.613525390625	770.782470703125	-152.5990142822266	-963.8759155273438	1641.156494140625	-384.9449157714844	-770.9994506835938	1660.360961914062	-458.1923217773438	-833.5069580078125	1662.256713867188	-343.2397766113281	-892.4912719726562	1642.612060546875	-548.8189697265625	-857.3659057617188	847.4013061523438	-619.9913940429688	-1083.89892578125	862.0045166015625	-289.7953491210938	-960.3958129882812	898.0723876953125	-291.9996032714844	-812.2142333984375	881.3463134765625	-502.0259704589844	-918.9462890625	427.734130859375	-573.2628173828125	-869.6300048828125	575.2615356445312	-583.9315795898438	-1024.229370117188	32.04391479492188	-595.9580688476562	-938.3992919921875	275.7151489257812	-576.6372680664062	-892.933837890625	44.65817260742188	-400.9590148925781	-967.3536376953125	50.86338043212891	-425.9762878417969	-899.1576538085938	46.71401214599609	-515.456787109375	-1097.71875	35.148193359375	-590.806640625	-1037.536743164062	464.5804748535156	-286.4486389160156	-1046.302001953125	725.727783203125	-256.165771484375	-1148.266845703125	51.73786926269531	-341.7449340820312	-1076.157592773438	324.2723083496094	-288.443359375	-943.164306640625	48.05592346191406	-272.0474853515625	-977.4685668945312	55.19795989990234	-334.9122009277344	-1048.1103515625	46.86850357055664	-253.6866912841797	-1182.1572265625	51.61663055419922	-415.8902587890625	
